<?xml version="1.0" encoding="UTF-8"?>
<svg width="15px" height="17px" viewBox="0 0 15 17" version="1.1" xmlns="http://www.w3.org/2000/svg" xmlns:xlink="http://www.w3.org/1999/xlink">
    <!-- Generator: Sketch 60 (88103) - https://sketch.com -->
    <title>Group 4 Copy 4</title>
    <desc>Created with Sketch.</desc>
    <g id="Page-1" stroke="none" stroke-width="1" fill="none" fill-rule="evenodd" stroke-linecap="round">
        <g id="Group-4-Copy-4" fill="#FFFFFF" stroke="#000000" stroke-width="0.5">
            <line x1="1.09125" y1="1.86525" x2="10.94625" y2="3.17025" id="Line"></line>
            <line x1="0.34425" y1="3.75975" x2="11.68875" y2="11.52675" id="Line-Copy"></line>
            <line x1="0.19125" y1="4.90275" x2="13.56975" y2="7.57125" id="Line-Copy-23"></line>
            <line x1="1.69425" y1="7.24725" x2="10.94625" y2="3.75975" id="Line-Copy-2"></line>
            <line x1="5.03775" y1="8.52075" x2="10.04175" y2="2.51775" id="Line-Copy-4"></line>
            <line x1="6.16725" y1="15.18525" x2="10.43775" y2="2.81925" id="Line-Copy-5"></line>
            <line x1="2.95425" y1="7.41825" x2="5.80275" y2="0.00225" id="Line-Copy-6"></line>
            <line x1="4.15575" y1="7.41825" x2="7.98075" y2="1.56375" id="Line-Copy-25"></line>
            <line x1="6.98175" y1="16.80075" x2="11.85975" y2="10.05975" id="Line-Copy-7"></line>
            <line x1="8.72325" y1="16.50375" x2="6.32025" y2="13.88475" id="Line-Copy-8"></line>
            <line x1="9.42075" y1="16.26075" x2="6.16725" y2="10.68075" id="Line-Copy-18"></line>
            <line x1="9.88425" y1="15.19425" x2="5.80275" y2="11.72925" id="Line-Copy-19"></line>
            <line x1="10.63125" y1="14.85675" x2="6.01875" y2="9.35325" id="Line-Copy-20"></line>
            <line x1="12.03075" y1="10.89675" x2="5.80275" y2="1.99125" id="Line-Copy-21"></line>
            <line x1="11.27475" y1="12.76875" x2="6.56325" y2="1.86525" id="Line-Copy-24"></line>
            <line x1="0.65925" y1="7.24725" x2="3.27375" y2="0.67725" id="Line-Copy-17"></line>
            <line x1="10.63125" y1="14.27625" x2="3.94425" y2="0.86625" id="Line-Copy-14"></line>
            <line x1="12.79125" y1="8.73675" x2="1.69425" y2="1.56375" id="Line-Copy-15"></line>
            <line x1="13.23675" y1="7.92225" x2="6.98175" y2="1.56375" id="Line-Copy-16"></line>
            <line x1="5.55975" y1="9.00225" x2="11.27475" y2="4.23675" id="Line-Copy-11"></line>
            <line x1="4.80825" y1="8.06175" x2="13.56975" y2="5.73525" id="Line-Copy-22"></line>
            <line x1="5.86575" y1="10.05975" x2="12.03075" y2="9.58725" id="Line-Copy-12"></line>
            <line x1="1.07325" y1="2.46825" x2="5.86575" y2="0.86625" id="Line-Copy-26"></line>
            <line x1="0.52425" y1="3.12075" x2="4.61025" y2="7.24725" id="Line-Copy-27"></line>
            <line x1="0.00225" y1="5.51925" x2="10.63125" y2="1.56375" id="Line-Copy-13"></line>
            <line x1="5.86575" y1="12.55275" x2="11.27475" y2="4.90275" id="Line-Copy-9"></line>
            <line x1="8.72325" y1="1.56375" x2="13.82625" y2="7.41825" id="Line-Copy-10"></line>
            <line x1="6.98175" y1="15.81075" x2="12.03075" y2="5.50575" id="Line-Copy-3"></line>
        </g>
    </g>
</svg>